<svg viewBox="0 0 512 512" xmlns="http://www.w3.org/2000/svg" role="img" aria-label="ember mascot">
  <defs>
    <linearGradient id="space" x1="0" y1="0" x2="1" y2="1">
      <stop offset="0" stop-color="#1d2038"/><stop offset="1" stop-color="#0c0d15"/>
    </linearGradient>
    <radialGradient id="halo" cx="50%" cy="54%" r="52%">
      <stop offset="0" stop-color="#ff7a45" stop-opacity="0.5"/><stop offset="1" stop-color="#ff7a45" stop-opacity="0"/>
    </radialGradient>
    <radialGradient id="coal" cx="50%" cy="40%" r="64%">
      <stop offset="0" stop-color="#fff3cf"/><stop offset="0.42" stop-color="#ffb14a"/>
      <stop offset="0.78" stop-color="#ff6a32"/><stop offset="1" stop-color="#c8301f"/>
    </radialGradient>
  </defs>
  <rect x="16" y="16" width="480" height="480" rx="116" fill="url(#space)"/>
  <g fill="#dfe4ff">
    <circle cx="96" cy="130" r="3"/><circle cx="150" cy="96" r="2"/><circle cx="92" cy="270" r="2.5"/>
    <circle cx="120" cy="412" r="2"/><circle cx="404" cy="414" r="3"/><circle cx="440" cy="270" r="2"/><circle cx="400" cy="120" r="2"/>
  </g>

  <!-- antenna -->
  <line x1="256" y1="118" x2="256" y2="146" stroke="#d7e2ff" stroke-width="4" stroke-linecap="round"/>
  <circle cx="256" cy="112" r="8" fill="#ff7a45"/>

  <circle cx="256" cy="276" r="150" fill="url(#halo)"/>
  <rect x="150" y="170" width="212" height="212" rx="94" fill="url(#coal)"/>

  <g fill="#3a1206"><ellipse cx="226" cy="262" rx="13" ry="18"/><ellipse cx="286" cy="262" rx="13" ry="18"/></g>
  <g fill="#fff7e6"><circle cx="221" cy="255" r="4.5"/><circle cx="281" cy="255" r="4.5"/></g>
  <g fill="#ff5630" opacity="0.4"><circle cx="202" cy="294" r="12"/><circle cx="310" cy="294" r="12"/></g>
  <path d="M222 300 Q256 328 290 300" fill="none" stroke="#3a1206" stroke-width="10" stroke-linecap="round"/>

  <!-- glass helmet over the face -->
  <circle cx="256" cy="266" r="138" fill="#cfe0ff" fill-opacity="0.1" stroke="#d7e2ff" stroke-opacity="0.55" stroke-width="5"/>
  <path d="M168 206 A138 138 0 0 1 232 158" fill="none" stroke="#ffffff" stroke-opacity="0.45" stroke-width="7" stroke-linecap="round"/>
</svg>
